<mxfile host="app.diagrams.net" agent="Mozilla/5.0 (X11; Ubuntu; Linux x86_64; rv:133.0) Gecko/20100101 Firefox/133.0" version="26.0.4">
  <diagram name="Page-1" id="Rg3iwZs5l1PE0ENn1jY8">
    <mxGraphModel dx="1364" dy="1964" grid="1" gridSize="10" guides="1" tooltips="1" connect="1" arrows="1" fold="1" page="1" pageScale="1" pageWidth="827" pageHeight="1169" math="0" shadow="0">
      <root>
        <mxCell id="0" />
        <mxCell id="1" parent="0" />
        <mxCell id="M4xpMHjyD0_Z2iAAhFIK-1" value="Bin" style="swimlane;fontStyle=1;align=center;verticalAlign=top;childLayout=stackLayout;horizontal=1;startSize=26;horizontalStack=0;resizeParent=1;resizeParentMax=0;resizeLast=0;collapsible=1;marginBottom=0;whiteSpace=wrap;html=1;" vertex="1" parent="1">
          <mxGeometry x="75" y="-980" width="310" height="150" as="geometry" />
        </mxCell>
        <mxCell id="M4xpMHjyD0_Z2iAAhFIK-2" value="&lt;div&gt;+name : String&lt;br&gt;&lt;/div&gt;&lt;div&gt;+ type : WasteType&lt;br&gt;&lt;/div&gt;&lt;div&gt;+ content : ArrayList&amp;lt;Waste&amp;gt;&lt;br&gt;&lt;/div&gt;" style="text;strokeColor=none;fillColor=none;align=left;verticalAlign=top;spacingLeft=4;spacingRight=4;overflow=hidden;rotatable=0;points=[[0,0.5],[1,0.5]];portConstraint=eastwest;whiteSpace=wrap;html=1;" vertex="1" parent="M4xpMHjyD0_Z2iAAhFIK-1">
          <mxGeometry y="26" width="310" height="64" as="geometry" />
        </mxCell>
        <mxCell id="M4xpMHjyD0_Z2iAAhFIK-3" value="" style="line;strokeWidth=1;fillColor=none;align=left;verticalAlign=middle;spacingTop=-1;spacingLeft=3;spacingRight=3;rotatable=0;labelPosition=right;points=[];portConstraint=eastwest;strokeColor=inherit;" vertex="1" parent="M4xpMHjyD0_Z2iAAhFIK-1">
          <mxGeometry y="90" width="310" height="8" as="geometry" />
        </mxCell>
        <mxCell id="M4xpMHjyD0_Z2iAAhFIK-4" value="&lt;div&gt;+ addWasteToBin(waste : Waste)&lt;/div&gt;&lt;div&gt;+ isCompatible(waste : Waste): Boolean&lt;br&gt;&lt;/div&gt;" style="text;strokeColor=none;fillColor=none;align=left;verticalAlign=top;spacingLeft=4;spacingRight=4;overflow=hidden;rotatable=0;points=[[0,0.5],[1,0.5]];portConstraint=eastwest;whiteSpace=wrap;html=1;" vertex="1" parent="M4xpMHjyD0_Z2iAAhFIK-1">
          <mxGeometry y="98" width="310" height="52" as="geometry" />
        </mxCell>
        <mxCell id="M4xpMHjyD0_Z2iAAhFIK-5" value="Waste" style="swimlane;fontStyle=1;align=center;verticalAlign=top;childLayout=stackLayout;horizontal=1;startSize=26;horizontalStack=0;resizeParent=1;resizeParentMax=0;resizeLast=0;collapsible=1;marginBottom=0;whiteSpace=wrap;html=1;" vertex="1" parent="1">
          <mxGeometry x="510" y="-730" width="296" height="134" as="geometry" />
        </mxCell>
        <mxCell id="M4xpMHjyD0_Z2iAAhFIK-6" value="+ name : String&lt;br&gt;&lt;div&gt;+ type : WasteType&lt;br&gt;&lt;/div&gt;&lt;div&gt;+ speed : Float&lt;br&gt;&lt;/div&gt;" style="text;strokeColor=none;fillColor=none;align=left;verticalAlign=top;spacingLeft=4;spacingRight=4;overflow=hidden;rotatable=0;points=[[0,0.5],[1,0.5]];portConstraint=eastwest;whiteSpace=wrap;html=1;" vertex="1" parent="M4xpMHjyD0_Z2iAAhFIK-5">
          <mxGeometry y="26" width="296" height="74" as="geometry" />
        </mxCell>
        <mxCell id="M4xpMHjyD0_Z2iAAhFIK-7" value="" style="line;strokeWidth=1;fillColor=none;align=left;verticalAlign=middle;spacingTop=-1;spacingLeft=3;spacingRight=3;rotatable=0;labelPosition=right;points=[];portConstraint=eastwest;strokeColor=inherit;" vertex="1" parent="M4xpMHjyD0_Z2iAAhFIK-5">
          <mxGeometry y="100" width="296" height="8" as="geometry" />
        </mxCell>
        <mxCell id="M4xpMHjyD0_Z2iAAhFIK-8" value="+ method(type): type" style="text;strokeColor=none;fillColor=none;align=left;verticalAlign=top;spacingLeft=4;spacingRight=4;overflow=hidden;rotatable=0;points=[[0,0.5],[1,0.5]];portConstraint=eastwest;whiteSpace=wrap;html=1;" vertex="1" parent="M4xpMHjyD0_Z2iAAhFIK-5">
          <mxGeometry y="108" width="296" height="26" as="geometry" />
        </mxCell>
        <mxCell id="M4xpMHjyD0_Z2iAAhFIK-9" value="ComposedWaste" style="swimlane;fontStyle=1;align=center;verticalAlign=top;childLayout=stackLayout;horizontal=1;startSize=26;horizontalStack=0;resizeParent=1;resizeParentMax=0;resizeLast=0;collapsible=1;marginBottom=0;whiteSpace=wrap;html=1;" vertex="1" parent="1">
          <mxGeometry x="40" y="-730" width="305" height="144" as="geometry" />
        </mxCell>
        <mxCell id="M4xpMHjyD0_Z2iAAhFIK-10" value="&lt;div&gt;+name : String&lt;br&gt;&lt;/div&gt;&lt;div&gt;+ isComposedOf : ArrayList&amp;lt;Waste&amp;gt;&lt;/div&gt;&lt;div&gt;+ isSliced : Boolean&lt;/div&gt;&lt;div&gt;+ speed : float&lt;br&gt;&lt;/div&gt;" style="text;strokeColor=none;fillColor=none;align=left;verticalAlign=top;spacingLeft=4;spacingRight=4;overflow=hidden;rotatable=0;points=[[0,0.5],[1,0.5]];portConstraint=eastwest;whiteSpace=wrap;html=1;" vertex="1" parent="M4xpMHjyD0_Z2iAAhFIK-9">
          <mxGeometry y="26" width="305" height="84" as="geometry" />
        </mxCell>
        <mxCell id="M4xpMHjyD0_Z2iAAhFIK-11" value="" style="line;strokeWidth=1;fillColor=none;align=left;verticalAlign=middle;spacingTop=-1;spacingLeft=3;spacingRight=3;rotatable=0;labelPosition=right;points=[];portConstraint=eastwest;strokeColor=inherit;" vertex="1" parent="M4xpMHjyD0_Z2iAAhFIK-9">
          <mxGeometry y="110" width="305" height="8" as="geometry" />
        </mxCell>
        <mxCell id="M4xpMHjyD0_Z2iAAhFIK-12" value="+ slice() : Waste, Waste" style="text;strokeColor=none;fillColor=none;align=left;verticalAlign=top;spacingLeft=4;spacingRight=4;overflow=hidden;rotatable=0;points=[[0,0.5],[1,0.5]];portConstraint=eastwest;whiteSpace=wrap;html=1;" vertex="1" parent="M4xpMHjyD0_Z2iAAhFIK-9">
          <mxGeometry y="118" width="305" height="26" as="geometry" />
        </mxCell>
        <mxCell id="M4xpMHjyD0_Z2iAAhFIK-13" value="1" style="endArrow=open;html=1;endSize=12;startArrow=diamondThin;startSize=14;startFill=0;edgeStyle=orthogonalEdgeStyle;align=left;verticalAlign=bottom;rounded=0;" edge="1" parent="1">
          <mxGeometry x="-1" y="3" relative="1" as="geometry">
            <mxPoint x="345" y="-720" as="sourcePoint" />
            <mxPoint x="505" y="-720" as="targetPoint" />
          </mxGeometry>
        </mxCell>
        <mxCell id="M4xpMHjyD0_Z2iAAhFIK-14" value="&lt;div&gt;&amp;lt;&amp;lt;Enumeration&amp;gt;&amp;gt;&lt;/div&gt;&lt;div&gt;WasteType&lt;br&gt;&lt;/div&gt;" style="swimlane;fontStyle=0;childLayout=stackLayout;horizontal=1;startSize=30;fillColor=none;horizontalStack=0;resizeParent=1;resizeParentMax=0;resizeLast=0;collapsible=1;marginBottom=0;whiteSpace=wrap;html=1;" vertex="1" parent="1">
          <mxGeometry x="520" y="-520" width="190" height="160" as="geometry" />
        </mxCell>
        <mxCell id="M4xpMHjyD0_Z2iAAhFIK-15" value="Recyclable" style="text;strokeColor=none;fillColor=none;align=left;verticalAlign=top;spacingLeft=4;spacingRight=4;overflow=hidden;rotatable=0;points=[[0,0.5],[1,0.5]];portConstraint=eastwest;whiteSpace=wrap;html=1;" vertex="1" parent="M4xpMHjyD0_Z2iAAhFIK-14">
          <mxGeometry y="30" width="190" height="26" as="geometry" />
        </mxCell>
        <mxCell id="M4xpMHjyD0_Z2iAAhFIK-16" value="Biodegradable" style="text;strokeColor=none;fillColor=none;align=left;verticalAlign=top;spacingLeft=4;spacingRight=4;overflow=hidden;rotatable=0;points=[[0,0.5],[1,0.5]];portConstraint=eastwest;whiteSpace=wrap;html=1;" vertex="1" parent="M4xpMHjyD0_Z2iAAhFIK-14">
          <mxGeometry y="56" width="190" height="26" as="geometry" />
        </mxCell>
        <mxCell id="M4xpMHjyD0_Z2iAAhFIK-17" value="Nuclear" style="text;strokeColor=none;fillColor=none;align=left;verticalAlign=top;spacingLeft=4;spacingRight=4;overflow=hidden;rotatable=0;points=[[0,0.5],[1,0.5]];portConstraint=eastwest;whiteSpace=wrap;html=1;" vertex="1" parent="M4xpMHjyD0_Z2iAAhFIK-14">
          <mxGeometry y="82" width="190" height="26" as="geometry" />
        </mxCell>
        <mxCell id="M4xpMHjyD0_Z2iAAhFIK-18" value="Chemical" style="text;strokeColor=none;fillColor=none;align=left;verticalAlign=top;spacingLeft=4;spacingRight=4;overflow=hidden;rotatable=0;points=[[0,0.5],[1,0.5]];portConstraint=eastwest;whiteSpace=wrap;html=1;" vertex="1" parent="M4xpMHjyD0_Z2iAAhFIK-14">
          <mxGeometry y="108" width="190" height="26" as="geometry" />
        </mxCell>
        <mxCell id="M4xpMHjyD0_Z2iAAhFIK-32" value="Non-Recyclable" style="text;strokeColor=none;fillColor=none;align=left;verticalAlign=top;spacingLeft=4;spacingRight=4;overflow=hidden;rotatable=0;points=[[0,0.5],[1,0.5]];portConstraint=eastwest;whiteSpace=wrap;html=1;" vertex="1" parent="M4xpMHjyD0_Z2iAAhFIK-14">
          <mxGeometry y="134" width="190" height="26" as="geometry" />
        </mxCell>
        <mxCell id="M4xpMHjyD0_Z2iAAhFIK-19" value="Player" style="swimlane;fontStyle=1;align=center;verticalAlign=top;childLayout=stackLayout;horizontal=1;startSize=26;horizontalStack=0;resizeParent=1;resizeParentMax=0;resizeLast=0;collapsible=1;marginBottom=0;whiteSpace=wrap;html=1;" vertex="1" parent="1">
          <mxGeometry x="60" y="-530" width="340" height="210" as="geometry" />
        </mxCell>
        <mxCell id="M4xpMHjyD0_Z2iAAhFIK-20" value="&lt;div&gt;+ name : String&lt;/div&gt;&lt;div&gt;+ score : Float&lt;/div&gt;&lt;div&gt;+ lives : Int = 3&lt;br&gt;&lt;/div&gt;&lt;div&gt;+ leftHand : Bin&lt;br&gt;&lt;/div&gt;&lt;div&gt;+ rightHand : Bin&lt;br&gt;&lt;/div&gt;" style="text;strokeColor=none;fillColor=none;align=left;verticalAlign=top;spacingLeft=4;spacingRight=4;overflow=hidden;rotatable=0;points=[[0,0.5],[1,0.5]];portConstraint=eastwest;whiteSpace=wrap;html=1;" vertex="1" parent="M4xpMHjyD0_Z2iAAhFIK-19">
          <mxGeometry y="26" width="340" height="94" as="geometry" />
        </mxCell>
        <mxCell id="M4xpMHjyD0_Z2iAAhFIK-21" value="" style="line;strokeWidth=1;fillColor=none;align=left;verticalAlign=middle;spacingTop=-1;spacingLeft=3;spacingRight=3;rotatable=0;labelPosition=right;points=[];portConstraint=eastwest;strokeColor=inherit;" vertex="1" parent="M4xpMHjyD0_Z2iAAhFIK-19">
          <mxGeometry y="120" width="340" height="8" as="geometry" />
        </mxCell>
        <mxCell id="M4xpMHjyD0_Z2iAAhFIK-22" value="&lt;div&gt;+ addToScore()&lt;/div&gt;&lt;div&gt;+ changeBin(direction : Direction, waste : Waste)&lt;br&gt;&lt;/div&gt;" style="text;strokeColor=none;fillColor=none;align=left;verticalAlign=top;spacingLeft=4;spacingRight=4;overflow=hidden;rotatable=0;points=[[0,0.5],[1,0.5]];portConstraint=eastwest;whiteSpace=wrap;html=1;" vertex="1" parent="M4xpMHjyD0_Z2iAAhFIK-19">
          <mxGeometry y="128" width="340" height="82" as="geometry" />
        </mxCell>
        <mxCell id="M4xpMHjyD0_Z2iAAhFIK-23" value="Game" style="swimlane;fontStyle=1;align=center;verticalAlign=top;childLayout=stackLayout;horizontal=1;startSize=26;horizontalStack=0;resizeParent=1;resizeParentMax=0;resizeLast=0;collapsible=1;marginBottom=0;whiteSpace=wrap;html=1;" vertex="1" parent="1">
          <mxGeometry x="516" y="-980" width="290" height="220" as="geometry" />
        </mxCell>
        <mxCell id="M4xpMHjyD0_Z2iAAhFIK-24" value="&lt;div&gt;+ player : Player&lt;br&gt;&lt;/div&gt;&lt;div&gt;+ ActiveWasteList : ArrayList&amp;lt;Waste&amp;gt;&lt;/div&gt;&lt;div&gt;+ BinList : ArrayList &amp;lt;Bin&amp;gt;&lt;br&gt;&lt;/div&gt;" style="text;strokeColor=none;fillColor=none;align=left;verticalAlign=top;spacingLeft=4;spacingRight=4;overflow=hidden;rotatable=0;points=[[0,0.5],[1,0.5]];portConstraint=eastwest;whiteSpace=wrap;html=1;" vertex="1" parent="M4xpMHjyD0_Z2iAAhFIK-23">
          <mxGeometry y="26" width="290" height="64" as="geometry" />
        </mxCell>
        <mxCell id="M4xpMHjyD0_Z2iAAhFIK-25" value="" style="line;strokeWidth=1;fillColor=none;align=left;verticalAlign=middle;spacingTop=-1;spacingLeft=3;spacingRight=3;rotatable=0;labelPosition=right;points=[];portConstraint=eastwest;strokeColor=inherit;" vertex="1" parent="M4xpMHjyD0_Z2iAAhFIK-23">
          <mxGeometry y="90" width="290" height="8" as="geometry" />
        </mxCell>
        <mxCell id="M4xpMHjyD0_Z2iAAhFIK-26" value="&lt;div&gt;+ play()&lt;/div&gt;&lt;div&gt;+ displayPlayersBin()&lt;/div&gt;&lt;div&gt;+ displayActiveWaste()&lt;/div&gt;&lt;div&gt;+ displayScore()&lt;br&gt;&lt;/div&gt;&lt;div&gt;+displayMainMenu()&lt;/div&gt;&lt;div&gt;+displayPauseMenu()&lt;/div&gt;&lt;div&gt;+displayEndMenu()&lt;br&gt;&lt;/div&gt;" style="text;strokeColor=none;fillColor=none;align=left;verticalAlign=top;spacingLeft=4;spacingRight=4;overflow=hidden;rotatable=0;points=[[0,0.5],[1,0.5]];portConstraint=eastwest;whiteSpace=wrap;html=1;" vertex="1" parent="M4xpMHjyD0_Z2iAAhFIK-23">
          <mxGeometry y="98" width="290" height="122" as="geometry" />
        </mxCell>
        <mxCell id="M4xpMHjyD0_Z2iAAhFIK-27" value="&lt;div&gt;&amp;lt;&amp;lt;Enumeration&amp;gt;&amp;gt;&lt;/div&gt;&lt;div&gt;Direction&lt;br&gt;&lt;/div&gt;" style="swimlane;fontStyle=0;childLayout=stackLayout;horizontal=1;startSize=30;fillColor=none;horizontalStack=0;resizeParent=1;resizeParentMax=0;resizeLast=0;collapsible=1;marginBottom=0;whiteSpace=wrap;html=1;" vertex="1" parent="1">
          <mxGeometry x="70" y="-1110" width="190" height="82" as="geometry" />
        </mxCell>
        <mxCell id="M4xpMHjyD0_Z2iAAhFIK-28" value="Left" style="text;strokeColor=none;fillColor=none;align=left;verticalAlign=top;spacingLeft=4;spacingRight=4;overflow=hidden;rotatable=0;points=[[0,0.5],[1,0.5]];portConstraint=eastwest;whiteSpace=wrap;html=1;" vertex="1" parent="M4xpMHjyD0_Z2iAAhFIK-27">
          <mxGeometry y="30" width="190" height="26" as="geometry" />
        </mxCell>
        <mxCell id="M4xpMHjyD0_Z2iAAhFIK-30" value="Right" style="text;strokeColor=none;fillColor=none;align=left;verticalAlign=top;spacingLeft=4;spacingRight=4;overflow=hidden;rotatable=0;points=[[0,0.5],[1,0.5]];portConstraint=eastwest;whiteSpace=wrap;html=1;" vertex="1" parent="M4xpMHjyD0_Z2iAAhFIK-27">
          <mxGeometry y="56" width="190" height="26" as="geometry" />
        </mxCell>
        <mxCell id="M4xpMHjyD0_Z2iAAhFIK-33" value="1" style="endArrow=open;html=1;endSize=12;startArrow=diamondThin;startSize=14;startFill=0;edgeStyle=orthogonalEdgeStyle;align=left;verticalAlign=bottom;rounded=0;" edge="1" parent="1">
          <mxGeometry x="-1" y="3" relative="1" as="geometry">
            <mxPoint x="505" y="-970" as="sourcePoint" />
            <mxPoint x="385" y="-970" as="targetPoint" />
          </mxGeometry>
        </mxCell>
      </root>
    </mxGraphModel>
  </diagram>
</mxfile>
